<svg xmlns="http://www.w3.org/2000/svg" viewBox="0 0 138 120" fill="none">
  <path fill="#E520E9" d="M137.124 90.563 73.371 2.241c-2.007-2.757-6.633-2.757-8.62 0L.998 90.563A5.317 5.317 0 0 0 0 93.664a5.332 5.332 0 0 0 3.643 5.05l63.754 20.851h.01a5.313 5.313 0 0 0 3.294 0h.01l63.753-20.85a5.266 5.266 0 0 0 3.394-3.406 5.244 5.244 0 0 0-.749-4.746h.015Zm-68.06-76.151 25.553 35.403-23.896-7.813c-.185-.06-.38-.05-.564-.094a3.49 3.49 0 0 0-.55-.09c-.184-.025-.359-.095-.543-.095-.185 0-.355.07-.54.095-.184.02-.369.05-.548.09-.19.035-.385.035-.554.094L43.67 49.77l-.15.05L69.074 14.41h-.01ZM32.96 64.438l27.819-9.104 2.97-.967v52.838l-49.88-16.318 19.09-26.449Zm41.424 42.757V54.367l30.788 10.071 19.091 26.434-49.884 16.323h.005Z"/>
</svg>
